Coordinates
version=1
nRows=7
nColumns=32
inDegrees=yes

Units are S.I. units (second, meters, Newtons, ...)
If the header above contains a line with 'inDegrees', this indicates whether rotational values are in degrees (yes) or radians (no).

endheader
time	pelvis_tilt	pelvis_list	pelvis_rotation	pelvis_tx	pelvis_ty	pelvis_tz	hip_flexion_r	hip_adduction_r	hip_rotation_r	knee_angle_r	knee_adduction_r	med_cond_adduction_r	lat_cond_adduction_r	patella_r_constrained_knee_angle	hip_flexion_l	hip_adduction_l	hip_rotation_l	knee_angle_l	knee_adduction_l	med_cond_adduction_l	lat_cond_adduction_l	patella_l_constrained_knee_angle	lumbar_extension	lumbar_bending	lumbar_rotation	ankle_angle_r	subtalar_angle_r	mtp_angle_r	ankle_angle_l	subtalar_angle_l	mtp_angle_l
      0.07000000	    -11.42295596	     -4.99608533	    -14.38097445	     -1.29209425	      0.84023431	      0.18922697	     -3.25351946	      5.85714796	     11.69536325	    -16.05092022	      2.83455155	     -0.00000000	     -0.00000000	     -0.28014141	     37.36131150	     -8.67610249	     -2.66122967	     -6.16365915	      0.22425170	      0.00000000	      0.00000000	     -0.10757615	     -8.25759857	     10.88322911	     12.99396336	     10.47528864	     15.06056868	     -0.00000000	     -0.81593266	      1.52032914	     -0.00000000
      0.07500000	    -11.33000567	     -4.84486762	    -14.25402921	     -1.28420061	      0.83992662	      0.18900975	     -3.41723625	      5.50599367	     11.70983540	    -16.74605102	      2.98635103	     -0.00000000	     -0.00000000	     -0.29227373	     37.41202136	     -8.28506668	     -2.11226281	     -7.18177281	      0.35217118	     -0.00000000	     -0.00000000	     -0.12534558	     -8.09914876	     10.63925635	     12.97573143	      9.78006987	     15.06579226	      0.00000000	     -1.39431195	      1.74363507	      0.00000000
      0.08000000	    -11.23767761	     -4.66002547	    -14.03405986	     -1.27634305	      0.83965823	      0.18862486	     -3.48369378	      5.08823023	     11.55621293	    -17.55450156	      3.20461862	      0.00000000	      0.00000000	     -0.30638385	     37.41677052	     -7.77940686	     -1.36414649	     -8.03077021	      0.47313564	      0.00000000	      0.00000000	     -0.14016338	     -7.95121322	     10.31481338	     12.80663153	      9.01275950	     15.22175531	     -0.00000000	     -2.26879367	      1.66095268	      0.00000000
      0.08500000	    -11.23598765	     -4.48089216	    -13.87323794	     -1.26850608	      0.83935532	      0.18832561	     -3.41747140	      4.75031937	     11.61044837	    -18.42968491	      3.39337511	     -0.00000000	     -0.00000000	     -0.32165868	     37.56078168	     -7.35037092	     -0.75686886	     -8.96199555	      0.59260217	      0.00000000	      0.00000000	     -0.15641633	     -7.62885935	     10.06777125	     12.66232775	      8.09684303	     15.11016244	     -0.00000000	     -3.16070298	      1.83421666	      0.00000000
      0.09000000	    -11.24610694	     -4.31529321	    -13.64508227	     -1.26077205	      0.83907537	      0.18792965	     -3.24235263	      4.42086002	     11.50674047	    -19.42494628	      3.60133123	     -0.00000000	     -0.00000000	     -0.33902927	     37.72531514	     -6.88984465	     -0.09597971	     -9.84110114	      0.70146717	      0.00000000	      0.00000000	     -0.17175962	     -7.34197990	      9.82257260	     12.45705577	      7.03928895	     15.21172707	      0.00000000	     -4.13544631	      1.98208621	      0.00000000
      0.09500000	    -11.19815137	     -4.05246498	    -13.40888149	     -1.25308586	      0.83893973	      0.18748268	     -3.03895514	      3.93341835	     11.46233304	    -20.48082468	      3.92155673	      0.00000000	      0.00000000	     -0.35745782	     37.80988902	     -6.30601331	      0.46508182	    -10.64082152	      0.75538617	     -0.00000000	      0.00000000	     -0.18571737	     -7.17159182	      9.42165036	     12.31637520	      5.84321982	     15.15316045	      0.00000000	     -5.12062298	      2.24205048	      0.00000000
      0.10000000	    -11.25049200	     -3.86437110	    -13.22589083	     -1.24546574	      0.83877134	      0.18716303	     -2.67335742	      3.60286620	     11.52622281	    -21.63650565	      4.20154305	      0.00000000	      0.00000000	     -0.37762826	     38.08206614	     -5.86828411	      0.72722049	    -11.62124105	      0.75194170	     -0.00000000	     -0.00000000	     -0.20282892	     -6.80849753	      9.12455851	     12.20540494	      4.50696238	     15.09764103	      0.00000000	     -5.78321385	      3.11834974	      0.00000000
